<svg xmlns="http://www.w3.org/2000/svg" width="58.083" height="75.667" viewBox="0 0 58.083 75.667">
  <g id="Group_16" data-name="Group 16" transform="translate(-332.519 -332.186)">
    <path id="Path_66" data-name="Path 66" d="M367.319,349.319a3.848,3.848,0,0,0,2.4,1.088,4.078,4.078,0,0,0,2.669-1.311,9.8,9.8,0,0,0,3.118-5.316,6.511,6.511,0,0,0-1.69-5.742,5.855,5.855,0,0,0-3.878-1.64,4.985,4.985,0,0,0-2.1.38C362.557,339.017,363.689,346.194,367.319,349.319Z" transform="translate(-8.48 -1.125)" fill="#fff"/>
    <path id="Path_67" data-name="Path 67" d="M375.739,359.725a1.349,1.349,0,0,0-.21.017,9.9,9.9,0,0,0-3.228-.815l-2.317-1.083c-.016-.009-.068.661-.121,1.444l-1.121,7.81h-.08l-.458-9.059H366.49l-.47,9.059h-.085l-.875-9.023h-.005a1.193,1.193,0,0,0-.031-.234l-2.316.793a9.174,9.174,0,0,0-3.349,1.019c-.032,0-.064,0-.1,0-2.386,0-4.32,6.253-4.32,13.968a34.2,34.2,0,0,0,1.354,10.152h0c.774,2.362,1.817,3.811,2.965,3.811a1.419,1.419,0,0,0,.5-.094v23.341a3.9,3.9,0,0,0,3.887,3.887h0a3.9,3.9,0,0,0,3.813-3.143,3.9,3.9,0,0,0,3.814,3.143h0a3.9,3.9,0,0,0,3.886-3.887v-23.3a1.445,1.445,0,0,0,.583.127c2.386,0,4.32-6.253,4.32-13.967S378.125,359.725,375.739,359.725Z" transform="translate(-5.994 -6.861)" fill="#fff"/>
    <path id="Path_68" data-name="Path 68" d="M397.88,333.671a5.286,5.286,0,0,0-3.5-1.481,4.507,4.507,0,0,0-1.9.34c-4.762,2.023-3.738,8.5-.462,11.325a3.483,3.483,0,0,0,2.164.982,3.689,3.689,0,0,0,2.409-1.184,8.848,8.848,0,0,0,2.814-4.8,5.878,5.878,0,0,0-1.526-5.181Z" transform="translate(-15.165 0)" fill="#fff"/>
    <path id="Path_69" data-name="Path 69" d="M349.567,333.671a5.286,5.286,0,0,0-3.5-1.481,4.507,4.507,0,0,0-1.9.34c-4.762,2.023-3.738,8.5-.462,11.325a3.483,3.483,0,0,0,2.164.982,3.692,3.692,0,0,0,2.41-1.184,8.851,8.851,0,0,0,2.814-4.8,5.878,5.878,0,0,0-1.526-5.181Z" transform="translate(-2.246 0)" fill="#fff"/>
    <path id="Path_70" data-name="Path 70" d="M348.434,383.6h0v0a39.886,39.886,0,0,1-1.578-11.839c0-8.995,2.255-16.287,5.038-16.287a1.006,1.006,0,0,1,.113,0,13.293,13.293,0,0,1,1.247-.545c-.573-1.064-1.235-1.673-1.943-1.673a1.262,1.262,0,0,0-.189.014,8.937,8.937,0,0,0-2.919-.736l-2.091-.977c-.014-.008-.062.595-.11,1.306l-1.013,7.05h-.072l-.414-8.178h-1.553l-.425,8.178h-.079l-.791-8.146h0a1.111,1.111,0,0,0-.027-.211l-2.092.715a8.3,8.3,0,0,0-3.024.918h-.085c-2.153,0-3.9,5.646-3.9,12.61a30.9,30.9,0,0,0,1.222,9.166h0c.7,2.133,1.64,3.441,2.677,3.441a1.3,1.3,0,0,0,.453-.085V399.4a3.519,3.519,0,0,0,3.509,3.509h0a3.523,3.523,0,0,0,3.443-2.836,3.522,3.522,0,0,0,3.443,2.835h0a3.52,3.52,0,0,0,3.51-3.509v-11.75A8.254,8.254,0,0,1,348.434,383.6Z" transform="translate(0 -5.18)" fill="#fff"/>
    <path id="Path_71" data-name="Path 71" d="M400.282,353.253a1.261,1.261,0,0,0-.189.014,8.937,8.937,0,0,0-2.919-.736l-2.091-.977c-.014-.008-.062.595-.11,1.306l-1.013,7.05h-.072l-.414-8.178h-1.547l-.425,8.178h-.08l-.79-8.146h0a1.11,1.11,0,0,0-.027-.211l-2.092.715a8.3,8.3,0,0,0-3.024.918H385.4c-.77,0-1.488.721-2.092,1.966.384.124.772.266,1.146.425a1.61,1.61,0,0,1,.245-.019c2.782,0,5.038,7.292,5.038,16.287,0,7.712-1.658,14.171-3.884,15.858V399.4a3.519,3.519,0,0,0,3.509,3.509h0a3.522,3.522,0,0,0,3.443-2.835,3.522,3.522,0,0,0,3.443,2.835h0a3.52,3.52,0,0,0,3.51-3.509V378.359a1.3,1.3,0,0,0,.526.115c2.153,0,3.9-5.646,3.9-12.61S402.435,353.253,400.282,353.253Z" transform="translate(-13.581 -5.18)" fill="#fff"/>
  </g>
</svg>
