<svg xmlns="http://www.w3.org/2000/svg" width="72.109" height="75.667" viewBox="0 0 72.109 75.667">
  <g id="Group_15" data-name="Group 15" transform="translate(-1345.885 -3106.029)">
    <path id="Path_54" data-name="Path 54" d="M1370.95,3138.23h-2.79l.552-10.638h1.7Z" transform="translate(-5.959 -5.768)" fill="#fff"/>
    <path id="Path_55" data-name="Path 55" d="M1365.48,3199.42h-6.68l-.649-27.126h8.175Z" transform="translate(-3.282 -17.724)" fill="#fff"/>
    <path id="Path_56" data-name="Path 56" d="M1370.45,3199.42h6.683l.649-27.126H1369.6Z" transform="translate(-6.345 -17.724)" fill="#fff"/>
    <path id="Path_57" data-name="Path 57" d="M1390.05,3131.4a5.576,5.576,0,0,0-1.437.626,51.124,51.124,0,0,0-6.409,4.414,3.9,3.9,0,0,1-1.466.874c-1.346.325-2.542-.848-3.469-1.877q-1.791-1.991-3.766-3.808a15.807,15.807,0,0,0-4.94-3.373,10.247,10.247,0,0,0-1.642-.463c-.178-.035-.356-.065-.536-.092l-1.335,7.5h-2.936l-.915-7.613c-2.942.143-6.122,2.708-8.449,4.42a18.048,18.048,0,0,0-6.215,7.261,7.575,7.575,0,0,0-.65,2.553A9.018,9.018,0,0,0,1347,3146.1a27.66,27.66,0,0,0,6.1,8.274,2.58,2.58,0,0,1,.663.8,2.441,2.441,0,0,1,.132.993q-.011,2.213-.023,4.426h18.608l.146-20.5,6.213,3.732a2.148,2.148,0,0,0,1.017.394,2.044,2.044,0,0,0,.938-.283,39.167,39.167,0,0,0,6.662-4.58l4.3-3.414a1.953,1.953,0,0,0,.516-.531,1.124,1.124,0,0,0,.117-.311Zm-36.486,8.541q-.06,4.682-.119,9.364-.495-.489-.981-1a5.832,5.832,0,0,1-1.456-2.208,8,8,0,0,1,.015-4.467c.234-.816,1.789-4.436,2.395-2.964.013.032.026.065.037.1a3.734,3.734,0,0,1,.115,1.184Z" transform="translate(0 -5.769)" fill="#fff"/>
    <path id="Path_58" data-name="Path 58" d="M1412.87,3132.56l1.184-.651a.592.592,0,0,0,.233-.8h0a.593.593,0,0,0-.623-.3l.08-.044a.592.592,0,0,0,.233-.8h0a.593.593,0,0,0-.547-.3l.108-.059a.593.593,0,0,0,.233-.8h0a.593.593,0,0,0-.624-.3l2.085-1.146a.593.593,0,0,0,.234-.8h0a.592.592,0,0,0-.8-.233l-3.236,1.779a.849.849,0,0,0-.1-.1h0a.812.812,0,0,0-1.141.1l-.939,1.117a.8.8,0,0,0-.148.265,9.872,9.872,0,0,0-1.739,1.506l2.062,3.1A14.913,14.913,0,0,0,1412.87,3132.56Z" transform="translate(-16.444 -5.407)" fill="#fff"/>
    <path id="Path_59" data-name="Path 59" d="M1372,3107.66a5.813,5.813,0,0,0-3.849-1.628,4.963,4.963,0,0,0-2.089.377c-5.234,2.225-4.111,9.348-.508,12.45a3.819,3.819,0,0,0,2.379,1.08,4.051,4.051,0,0,0,2.649-1.3,9.733,9.733,0,0,0,3.1-5.278,6.466,6.466,0,0,0-1.677-5.7Z" transform="translate(-4.442)" fill="#fff"/>
    <path id="Path_60" data-name="Path 60" d="M1440.73,3107.48l-1.214-.855-5.069,7.2-2.711-1.909-.855,1.214,2.766,1.948v-.006l1.159.816Z" transform="translate(-22.736 -0.158)" fill="#fff"/>
    <path id="Path_61" data-name="Path 61" d="M1435.37,3114.41v3.375h-7.97V3109.8h7.977v.776l1.259-1.789v-.246h-10.5v10.5h10.5v-6.423Z" transform="translate(-21.468 -0.673)" fill="#fff"/>
    <path id="Path_62" data-name="Path 62" d="M1440.73,3126.99l-1.214-.855-5.069,7.2-2.711-1.908-.855,1.214,2.766,1.948v-.006l1.159.816Z" transform="translate(-22.736 -5.379)" fill="#fff"/>
    <path id="Path_63" data-name="Path 63" d="M1435.37,3133.92v3.375h-7.97v-7.976h7.977v.775l1.259-1.789v-.247h-10.5v10.5h10.5v-6.422Z" transform="translate(-21.468 -5.893)" fill="#fff"/>
    <path id="Path_64" data-name="Path 64" d="M1440.73,3146.51l-1.214-.855-5.069,7.2-2.711-1.908-.855,1.214,2.766,1.948v-.006l1.159.816Z" transform="translate(-22.736 -10.598)" fill="#fff"/>
    <path id="Path_65" data-name="Path 65" d="M1435.37,3153.44v3.375h-7.97v-7.976h7.977v.775l1.259-1.789v-.246h-10.5v10.5h10.5v-6.423Z" transform="translate(-21.468 -11.113)" fill="#fff"/>
  </g>
</svg>
