<svg xmlns="http://www.w3.org/2000/svg" width="63.802" height="75.667" viewBox="0 0 63.802 75.667">
  <g id="Group_16" data-name="Group 16" transform="translate(-0.004)">
    <path id="Path_38" data-name="Path 38" d="M816.957,964.334a1.387,1.387,0,0,0-1.769,1.769l3.931,5.575c.309.426.9.4,1.412-.122l1.884-1.884c.519-.519.547-1.1.123-1.414l-5.575-3.929Zm6.224-17.524c-.483.081-.787.571-.787,1.25s.3,1.169.787,1.25l6.727,1.167c.519.083.912-.351.912-1.086v-2.664c0-.735-.394-1.169-.912-1.086l-6.727,1.167Zm-23.014-23.016c-.081.483-.571.787-1.25.787s-1.169-.3-1.25-.787l-1.169-6.727c-.083-.519.353-.912,1.086-.912h2.664c.733,0,1.169.394,1.086.912Zm-25.51,23.014c.483.081.787.571.787,1.25s-.3,1.169-.787,1.25l-6.727,1.167c-.519.083-.912-.351-.912-1.086v-2.664c0-.735.394-1.169.912-1.086l6.727,1.167Zm6.224,17.524a1.387,1.387,0,0,1,1.769,1.769l-3.929,5.575c-.309.426-.9.4-1.414-.122l-1.884-1.884c-.519-.519-.547-1.1-.123-1.414l5.575-3.929Zm1.769-34.316a1.387,1.387,0,0,1-1.769,1.769l-5.575-3.931c-.426-.309-.4-.894.123-1.412l1.884-1.884c.519-.519,1.1-.547,1.412-.123l3.931,5.575Zm32.547,0a1.387,1.387,0,0,0,1.769,1.769l5.575-3.931c.426-.309.4-.894-.123-1.412l-1.884-1.884c-.519-.519-1.1-.547-1.412-.123l-3.931,5.575Z" transform="translate(-767.014 -916.155)" fill="#fff" fill-rule="evenodd"/>
    <path id="Path_39" data-name="Path 39" d="M816.915,1002.1v-.617a2.277,2.277,0,0,0-.432-4.349,1.734,1.734,0,0,0-1.276-.606H796.992a1.734,1.734,0,0,0-1.276.607,2.277,2.277,0,0,0-.432,4.348v.617a2.277,2.277,0,0,0,.37,4.337,9.468,9.468,0,0,0,5.176,3.608q.372.1.745.181a4.855,4.855,0,0,0,9.05,0q.372-.078.745-.181a9.441,9.441,0,0,0,5.1-3.507c.031-.034.059-.066.088-.1a2.277,2.277,0,0,0,.36-4.333Zm-21.685-2.906a.328.328,0,0,1,.328-.328h21.034a.328.328,0,1,1,0,.655H795.556a.327.327,0,0,1-.326-.333Zm21.362,5.22H795.556a.328.328,0,0,1,0-.656h21.034a.328.328,0,1,1,0,.655Z" transform="translate(-774.198 -937.65)" fill="#fff"/>
    <path id="Path_40" data-name="Path 40" d="M817.5,937.948A20.291,20.291,0,0,0,782.871,952.3c0,6.308,2.733,9.967,5.283,13.392,1.892,2.534,3.666,4.914,3.666,8.134a1.791,1.791,0,0,0,1.791,1.791h8.357a31.449,31.449,0,0,0-2.09-9.358c-.12-.36-.245-.73-.375-1.123l1.521.845a.662.662,0,0,0,.765-.088h0l1.379-1.252,1.377,1.252a.662.662,0,0,0,.8.069l1.48-.823c-.132.4-.255.765-.377,1.125a31.39,31.39,0,0,0-2.091,9.357h8.363a1.791,1.791,0,0,0,1.791-1.791c0-3.218,1.772-5.6,3.666-8.134,2.549-3.419,5.284-7.085,5.284-13.392a20.228,20.228,0,0,0-5.957-14.353Zm-1.874,16.966a8.912,8.912,0,0,1-3.654,1.439c-.225,0-.441-.01-.647-.02a28.82,28.82,0,0,0,1.281,3.62l-1.926.2c-1.085-1.044-1.3-3.068-2.573-4.054a2.2,2.2,0,0,0-.426-.228l-.042.017c-.716-.128-1.448-.22-2.075-.286l1.782-.733h0l.9-.385A25.8,25.8,0,0,1,816,952.824c.573.338.99.98-.373,2.092Zm1.906-4.139c-.96.938-2.49.792-3.832.845-4.73.177-8.763,3.5-13.4,4.423a4.443,4.443,0,0,1-3.279-.338,5.294,5.294,0,0,1-1.8-3.009h-.035c-2.169.14-4.592.122-6.178-1.363a5.393,5.393,0,0,1-1.423-4.656c.7-5.076,5.465-8.675,10.027-10.192a19.453,19.453,0,0,1,6.685-.985,16.259,16.259,0,0,1,10.016,3.524,11.214,11.214,0,0,1,4.1,9.548,3.565,3.565,0,0,1-.879,2.2Z" transform="translate(-771.254 -920.392)" fill="#fff"/>
  </g>
</svg>
